<?xml version="1.0" encoding="UTF-8" standalone="no"?>
<svg
   version="1.1"
   id="svg851"
   xml:space="preserve"
   width="169.38292"
   height="72.037476"
   viewBox="0 0 169.38292 72.037476"
   sodipodi:docname="logo-website.svg"
   inkscape:version="1.1 (c68e22c387, 2021-05-23)"
   inkscape:export-filename="/Users/hugotausch/Desktop/logo-website.png"
   inkscape:export-xdpi="500.09406"
   inkscape:export-ydpi="500.09406"
   xmlns:inkscape="http://www.inkscape.org/namespaces/inkscape"
   xmlns:sodipodi="http://sodipodi.sourceforge.net/DTD/sodipodi-0.dtd"
   xmlns="http://www.w3.org/2000/svg"
   xmlns:svg="http://www.w3.org/2000/svg"
   xmlns:rdf="http://www.w3.org/1999/02/22-rdf-syntax-ns#"
   xmlns:cc="http://creativecommons.org/ns#"
   xmlns:dc="http://purl.org/dc/elements/1.1/"><metadata
     id="metadata857"><rdf:RDF><cc:Work
         rdf:about=""><dc:format>image/svg+xml</dc:format><dc:type
           rdf:resource="http://purl.org/dc/dcmitype/StillImage" /></cc:Work></rdf:RDF></metadata><defs
     id="defs855" /><sodipodi:namedview
     pagecolor="#ffffff"
     bordercolor="#666666"
     borderopacity="1"
     objecttolerance="10"
     gridtolerance="10"
     guidetolerance="10"
     inkscape:pageopacity="0"
     inkscape:pageshadow="2"
     inkscape:window-width="1440"
     inkscape:window-height="855"
     id="namedview853"
     showgrid="false"
     inkscape:zoom="1.5757291"
     inkscape:cx="-37.125671"
     inkscape:cy="33.31791"
     inkscape:window-x="376"
     inkscape:window-y="319"
     inkscape:window-maximized="0"
     inkscape:current-layer="g859"
     inkscape:pagecheckerboard="0"
     fit-margin-top="0"
     fit-margin-left="0"
     fit-margin-right="0"
     fit-margin-bottom="0" /><g
     id="g859"
     inkscape:groupmode="layer"
     inkscape:label="ink_ext_XXXXXX"
     transform="matrix(1.3333333,0,0,-1.3333333,-18.009333,84.043731)"><path
       d="M 75.8934,36.034 V 49.5434 H 13.507 V 36.034 h 62.3864"
       style="fill:#231f20;fill-opacity:1;fill-rule:nonzero;stroke:none;stroke-width:0.1"
       id="path863" /><path
       d="M 75.8934,63.0328 44.7004,9.00469 13.507,63.0328 Z M 29.1063,54.0266 44.7004,27.0172 60.2941,54.0266 H 29.1063"
       style="fill:#ed1443;fill-opacity:1;fill-rule:nonzero;stroke:none;stroke-width:0.1"
       id="path865" /><path
       d="m 75.8934,36.0344 v 13.509 H 13.507 v -13.509 h 62.3864"
       style="fill:#231f20;fill-opacity:1;fill-rule:nonzero;stroke:none;stroke-width:0.1"
       id="path867" /><path
       d="m 36.7957,40.6984 3.1949,6.7914 h 2.377 L 37.991,38.0879 h -2.3972 l -4.2379,9.4019 h 2.2937 l 3.1461,-6.7914"
       style="fill:#ffffff;fill-opacity:1;fill-rule:nonzero;stroke:none;stroke-width:0.1"
       id="path869" /><path
       d="m 54.3438,47.4891 h -6.6602 v -1.7903 h 4.4984 v -3.4894 c 0,-1.677 -1.2941,-2.4387 -2.3074,-2.4387 -0.7,0 -1.857,0.3375 -2.2715,1.7648 l -1.814,-0.4402 c 0.2925,-1.3867 1.7558,-3.2351 4.1871,-3.2351 2.5437,0 4.3676,1.614 4.3676,4.991 v 4.6379"
       style="fill:#ffffff;fill-opacity:1;fill-rule:nonzero;stroke:none;stroke-width:0.1"
       id="path871" /><path
       d="m 71.2348,38.0672 v 9.4101 h -2.0461 l -3.3942,-4.4363 -3.3949,4.4363 h -2.0457 v -9.4101 h 2.1613 v 6.0574 l 2.9379,-3.8285 h 0.6828 l 2.9379,3.8285 v -6.0574 h 2.161"
       style="fill:#ffffff;fill-opacity:1;fill-rule:nonzero;stroke:none;stroke-width:0.1"
       id="path873" /><path
       d="m 26.9906,46.2406 c -0.9957,1.0258 -2.4617,1.5735 -4.0707,1.5742 -2.925,-0.0011 -5.3859,-1.8003 -5.3859,-5.0214 0,-3.2223 2.4629,-5.0215 5.3859,-5.0215 1.7485,0 3.3274,0.648 4.318,1.8547 l -1.6895,1.2355 c -0.5957,-0.7672 -1.5597,-1.1793 -2.6285,-1.1793 -1.7625,0 -3.2472,1.1145 -3.2472,3.1106 0,1.9953 1.4836,3.1097 3.2472,3.1109 -4e-4,0 -0.0011,0 -0.0015,0 0.0011,0 0.0023,0 0.0035,0 -4e-4,0 -0.0012,0 -0.002,0 0.9875,-8e-4 1.8867,-0.3508 2.4875,-1.0082 z m -4.0707,1.5742 c 0.0012,0 0.0024,0 0.0035,0 -0.0023,0 -0.0043,0 -0.0066,0 0.0012,0 0.0023,0 0.0031,0"
       style="fill:#ffffff;fill-opacity:1;fill-rule:nonzero;stroke:none;stroke-width:0.1"
       id="path875" /><path
       d="M 140.54419,36.034 V 49.5434 H 80.3957 V 36.034 h 60.14849"
       style="fill:#736f6b;fill-opacity:1;fill-rule:nonzero;stroke:none;stroke-width:0.0871535"
       id="path877" /><text
       xml:space="preserve"
       style="font-style:normal;font-variant:normal;font-weight:normal;font-stretch:normal;font-size:14px;line-height:1.25;font-family:'Source Sans Pro';-inkscape-font-specification:'Source Sans Pro, Normal';font-variant-ligatures:normal;font-variant-caps:normal;font-variant-numeric:normal;font-variant-east-asian:normal;fill:#000000;fill-opacity:1;stroke:none;stroke-width:0.75"
       x="83.658867"
       y="-38.550701"
       id="text892"
       transform="scale(1,-1)"><tspan
         sodipodi:role="line"
         id="tspan890"
         x="83.658867"
         y="-38.550701"
         style="font-style:normal;font-variant:normal;font-weight:bold;font-stretch:normal;font-size:13px;font-family:'Source Sans Pro';-inkscape-font-specification:'Source Sans Pro, Bold';font-variant-ligatures:normal;font-variant-caps:normal;font-variant-numeric:normal;font-variant-east-asian:normal;fill:#ffffff;fill-opacity:1;stroke-width:0.75">WALHEIM</tspan></text></g></svg>
